<svg width="21" height="21" viewBox="0 0 21 21" fill="none" xmlns="http://www.w3.org/2000/svg">
<path id="Vector" d="M16.7084 16.75C17.2609 16.75 17.7908 16.9695 18.1816 17.3602C18.5723 17.7509 18.7917 18.2808 18.7917 18.8333C18.7917 19.3859 18.5723 19.9158 18.1816 20.3065C17.7908 20.6972 17.2609 20.9167 16.7084 20.9167C16.1559 20.9167 15.626 20.6972 15.2353 20.3065C14.8446 19.9158 14.6251 19.3859 14.6251 18.8333C14.6251 17.6771 15.5522 16.75 16.7084 16.75ZM0.041748 0.0833282H3.448L4.42716 2.16666H19.8334C20.1097 2.16666 20.3746 2.27641 20.57 2.47176C20.7653 2.66711 20.8751 2.93206 20.8751 3.20833C20.8751 3.38541 20.823 3.56249 20.7501 3.72916L17.0209 10.4687C16.6667 11.1042 15.9792 11.5417 15.198 11.5417H7.43758L6.50008 13.2396L6.46883 13.3646C6.46883 13.4336 6.49627 13.4999 6.5451 13.5487C6.59394 13.5976 6.66018 13.625 6.72925 13.625H18.7917V15.7083H6.29175C5.73921 15.7083 5.20931 15.4888 4.81861 15.0981C4.42791 14.7074 4.20841 14.1775 4.20841 13.625C4.20841 13.2604 4.30216 12.9167 4.45841 12.625L5.87508 10.0729L2.12508 2.16666H0.041748V0.0833282ZM6.29175 16.75C6.84428 16.75 7.37419 16.9695 7.76489 17.3602C8.15559 17.7509 8.37508 18.2808 8.37508 18.8333C8.37508 19.3859 8.15559 19.9158 7.76489 20.3065C7.37419 20.6972 6.84428 20.9167 6.29175 20.9167C5.73921 20.9167 5.20931 20.6972 4.81861 20.3065C4.42791 19.9158 4.20841 19.3859 4.20841 18.8333C4.20841 17.6771 5.1355 16.75 6.29175 16.75ZM15.6667 9.45833L18.5626 4.24999H5.39591L7.85425 9.45833H15.6667Z" fill="black"/>
</svg>
