<svg width="24" height="24" viewBox="0 0 24 24" fill="none" xmlns="http://www.w3.org/2000/svg">
<path d="M11.9679 10.1828C12.0242 9.69857 12.0469 9.211 12.036 8.72359L13.8021 6.20134C13.9209 6.03161 14.1023 5.91605 14.3064 5.88007C14.5104 5.84409 14.7204 5.89064 14.8902 6.00949C15.0599 6.12833 15.1755 6.30973 15.2114 6.51379C15.2474 6.71784 15.2009 6.92783 15.082 7.09755L13.3159 9.61981C12.8542 9.77623 12.4038 9.96435 11.9679 10.1828ZM23.1268 12.0725C23.0985 11.4828 22.845 10.6258 21.8179 9.9066C20.47 8.96278 18.1094 8.65468 15.504 9.08113C14.7611 9.20021 14.0292 9.38038 13.3159 9.61981L8.13637 17.017C8.01752 17.1867 7.83612 17.3023 7.63207 17.3382C7.42802 17.3742 7.21803 17.3277 7.0483 17.2088C6.87857 17.09 6.763 16.9086 6.72702 16.7045C6.69104 16.5005 6.7376 16.2905 6.85644 16.1208L12.036 8.72359C12.018 7.97226 11.938 7.22368 11.797 6.48547C11.3058 3.89074 10.209 1.77795 8.85865 0.832444C7.83151 0.113233 6.93947 0.16815 6.37574 0.343279C5.33894 0.662827 4.0526 1.58732 2.37079 6.02718C1.51997 8.27235 2.08306 9.75985 2.78104 10.6563C1.74438 11.1043 0.925778 11.9425 0.502324 12.9894C0.07887 14.0364 0.0846106 15.2079 0.518306 16.2507C0.952 17.2934 1.77878 18.1235 2.81978 18.5614C3.86079 18.9992 5.03232 19.0096 6.08095 18.5903C6.04561 19.7191 6.45609 20.8165 7.22358 21.6449C7.99107 22.4734 9.05386 22.9664 10.1821 23.0173C11.3102 23.0682 12.4131 22.6729 13.2521 21.9169C14.0911 21.1609 14.5987 20.105 14.6651 18.9776C15.7451 19.3285 17.3358 19.3467 19.1554 17.7799C21.174 16.0412 23.2238 14.0026 23.1268 12.0725Z" fill="#E6C200"/>
</svg>
